<?xml version="1.0" encoding="iso-8859-1"?>
<!-- Uploaded to: SVG Repo, www.svgrepo.com, Generator: SVG Repo Mixer Tools -->
<svg xmlns="http://www.w3.org/2000/svg" xmlns:xlink="http://www.w3.org/1999/xlink" version="1.1" id="Capa_1"  viewBox="0 0 504.895 504.895" xml:space="preserve" width="512" height="512">
<g>
	<path style="fill:#FABA45;" d="M392.139,169.814H287.295l-30.847-45.246h-33.27l0.103,45.246H112.756   C54.624,169.814,7.5,216.938,7.5,275.07c0,58.131,47.124,105.256,105.256,105.256h279.383c58.132,0,105.256-47.125,105.256-105.256   C497.395,216.938,450.271,169.814,392.139,169.814z"/>
	<circle style="fill:#E95B2D;" cx="112.756" cy="275.07" r="105.256"/>
	<path style="fill:#0F2639;" d="M392.139,162.314h-100.88l-30.847-45.246h-44.75l0.103,45.246H112.756   C50.582,162.314,0,212.897,0,275.07s50.582,112.756,112.756,112.756h279.383c62.174,0,112.756-50.582,112.756-112.756   S454.313,162.314,392.139,162.314z M15,275.07c0-53.903,43.853-97.756,97.756-97.756c53.902,0,97.755,43.853,97.755,97.756   c0,53.903-43.853,97.756-97.755,97.756C58.853,372.826,15,328.973,15,275.07z M392.139,372.826H168.903   c9.713-5.601,18.514-12.612,26.131-20.745h113.134v-15H206.879c11.768-17.803,18.632-39.119,18.632-62.011   c0-7.313-0.708-14.461-2.044-21.39h108.346v-15H219.484c-2.588-7.569-5.962-14.777-10.021-21.528h200.148v-15H198.686   c-8.404-9.889-18.475-18.318-29.782-24.838h61.895l-0.103-45.246h21.789l30.847,45.246h108.808   c53.903,0,97.756,43.853,97.756,97.756C489.895,328.973,446.042,372.826,392.139,372.826z"/>
	<path style="fill:#0F2639;" d="M147.473,345.395l-6.659-13.441c-8.772,4.346-18.212,6.55-28.058,6.55   c-34.978,0-63.434-28.456-63.434-63.433c0-34.978,28.456-63.434,63.434-63.434c34.977,0,63.433,28.456,63.433,63.434   c0.001,16.417-6.276,32.001-17.673,43.881l10.824,10.385c14.09-14.686,21.849-33.958,21.849-54.266   c0-43.249-35.185-78.434-78.433-78.434c-43.248,0-78.434,35.185-78.434,78.434c0,43.248,35.185,78.433,78.434,78.433   C124.932,353.503,136.612,350.775,147.473,345.395z"/>
	<path style="fill:#0F2639;" d="M68.645,275.07c0,24.323,19.788,44.11,44.111,44.11c24.323,0,44.11-19.788,44.11-44.11   c0-24.323-19.788-44.111-44.11-44.111C88.433,230.959,68.645,250.747,68.645,275.07z M141.866,275.07   c0,16.051-13.059,29.11-29.11,29.11c-16.052,0-29.111-13.059-29.111-29.11c0-16.052,13.059-29.111,29.111-29.111   C128.807,245.959,141.866,259.018,141.866,275.07z"/>
	<rect x="354.697" y="238.681" style="fill:#0F2639;" width="105.826" height="15"/>
	<path style="fill:#0F2639;" d="M368.614,302.482c-16.644,0-30.185,13.541-30.185,30.186h15c0-8.374,6.812-15.186,15.185-15.186   c8.373,0,15.185,6.812,15.185,15.186h15C398.799,316.022,385.258,302.482,368.614,302.482z"/>
	<path style="fill:#0F2639;" d="M368.614,272.73c-16.357,0-31.903,6.662-43.186,18.394h-86v15h92.774l2.246-2.627   c8.564-10.02,21.018-15.767,34.166-15.767c13.148,0,25.602,5.747,34.165,15.767l2.245,2.627h55.498v-15H411.8   C400.518,279.392,384.971,272.73,368.614,272.73z"/>
</g>















</svg>