<?xml version="1.0" encoding="UTF-8" standalone="no"?>
<svg width="60px" height="60px" viewBox="0 0 60 60" version="1.1" xmlns="http://www.w3.org/2000/svg" xmlns:xlink="http://www.w3.org/1999/xlink" xmlns:sketch="http://www.bohemiancoding.com/sketch/ns">
    <!-- Generator: Sketch 3.2.2 (9983) - http://www.bohemiancoding.com/sketch -->
    <title>Writing</title>
    <desc>Created with Sketch.</desc>
    <defs></defs>
    <g id="stroked" stroke="none" stroke-width="1" fill="none" fill-rule="evenodd" sketch:type="MSPage">
        <g id="Activities" sketch:type="MSLayerGroup" transform="translate(-614.000000, -478.000000)" stroke="#ad423c" stroke-width="2" stroke-linecap="round" stroke-linejoin="round">
            <g id="Writing" transform="translate(620.000000, 481.000000)" sketch:type="MSShapeGroup">
                <path d="M46.5553657,0.635242881 C46.5553657,0.635242881 34.7736073,14.9728281 26.0697326,18.4707507 C17.365858,21.9686733 7.90890638,30.8831626 7.90890638,38.2658842 C7.90890638,45.6486058 25.5000401,44.1791539 25.5000401,44.1791539 L32.0343324,38.3678944 C32.0343324,38.3678944 27.3697204,38.4531878 23.5670524,35.8956458 C28.7691471,33.5819832 36.0371635,34.395495 36.0371635,34.395495 L41.7145916,27.9898508 L33.1165841,25.7653414 L44.3951469,23.8374332 C44.3951469,23.8374332 48.3808311,18.2414419 48.3808334,14.8459576 C44.3951484,14.8459573 41.4260458,14.5304198 41.4260458,14.5304198 L48.5359919,10.4175123 L46.5553657,0.635242881 Z" id="Path-1994"></path>
                <path d="M10,42 L0.486851215,51.5131493" id="Line"></path>
                <path d="M6.74077677,52 L32.0000007,52" id="Path-1996"></path>
                <path d="M37,52 L42,52" id="Path-1996"></path>
            </g>
        </g>
    </g>
</svg>